<svg xmlns="http://www.w3.org/2000/svg" xmlns:xlink="http://www.w3.org/1999/xlink" width="20" height="25"><defs><path id="a" d="M141 331.82a8.9 8.9 0 0 1-.82 3.69c-.97 2.23-3.1 5.67-7.78 9.35a.65.65 0 0 1-.8 0c-4.68-3.68-6.8-7.12-7.78-9.35a8.56 8.56 0 0 1-.82-3.7 8.92 8.92 0 0 1 9-8.81c4.95 0 9 3.96 9 8.82zm-1.28 0a7.66 7.66 0 0 0-7.72-7.58 7.66 7.66 0 0 0-7.59 9.01v.04l.05.2c.12.52.3 1.03.52 1.5l.01.02c.88 2.05 2.8 5.17 7 8.56 4.2-3.4 6.13-6.51 7.01-8.56l.01-.01c.23-.49.4-1 .52-1.5v-.02l.04-.2v-.02c.1-.47.15-.96.15-1.45zm-2.01.1c0 3.08-2.57 5.6-5.71 5.6a5.66 5.66 0 0 1-5.72-5.6c0-3.09 2.57-5.6 5.72-5.6a5.66 5.66 0 0 1 5.7 5.6zm-1.27 0c0-2.4-2-4.36-4.44-4.36a4.4 4.4 0 0 0-4.45 4.36 4.4 4.4 0 0 0 4.45 4.35 4.4 4.4 0 0 0 4.44-4.35z"/></defs><use xlink:href="#a" transform="translate(-122 -321)"/></svg>