<svg xmlns="http://www.w3.org/2000/svg" xmlns:xlink="http://www.w3.org/1999/xlink" width="27" height="27"><defs><path id="a" d="M903.6 177.32c0 .5-.8 1.3-1.3 1.3s-1.3-.8-1.3-1.3c0-.52.8-1.3 1.3-1.3s1.3.78 1.3 1.3zM902.32 199c-.52 0-1.3-.8-1.3-1.3s.78-1.3 1.3-1.3 1.3.8 1.3 1.3-.78 1.3-1.3 1.3zm3.76-19.22c0 .52-.8 1.3-1.3 1.3s-1.3-.78-1.3-1.3c0-.5.8-1.3 1.3-1.3s1.3.8 1.3 1.3zm-1.28 16.74c-.52 0-1.3-.8-1.3-1.3s.78-1.3 1.3-1.3 1.3.8 1.3 1.3-.78 1.3-1.3 1.3zm2.49-2.5c-.52 0-1.3-.8-1.3-1.3s.78-1.3 1.3-1.3 1.3.8 1.3 1.3-.78 1.3-1.3 1.3zm1.27-11.73c0 .52-.8 1.3-1.27 1.3-.48 0-1.28-.78-1.28-1.3s.8-1.3 1.28-1.3c.47 0 1.27.78 1.27 1.3zm2.5 2.46c0 .52-.8 1.32-1.3 1.32-.49 0-1.3-.8-1.3-1.32 0-.5.81-1.3 1.3-1.3.5 0 1.3.8 1.3 1.3zm-1.3 6.78c-.51 0-1.3-.8-1.3-1.3s.79-1.3 1.3-1.3c.53 0 1.3.8 1.3 1.3s-.77 1.3-1.3 1.3zm2.75-2.36c-.68 0-1.7-1.04-1.7-1.68 0-.64 1.02-1.68 1.7-1.68.69 0 1.7 1.04 1.7 1.68 0 .64-1.01 1.68-1.7 1.68zm2.74-3.1c-.52 0-1.32-.8-1.32-1.3s.8-1.3 1.32-1.3c.5 0 1.3.8 1.3 1.3s-.8 1.3-1.3 1.3zm1.28 4.16c0 .52-.8 1.3-1.3 1.3s-1.3-.78-1.3-1.3.8-1.3 1.3-1.3 1.3.78 1.3 1.3zm1.18-6.7c-.52 0-1.3-.77-1.3-1.27s.78-1.27 1.3-1.27 1.3.78 1.3 1.27c0 .5-.78 1.28-1.3 1.28zm1.3 9.18c0 .52-.78 1.3-1.27 1.3-.5 0-1.28-.78-1.28-1.3s.78-1.3 1.28-1.3 1.27.78 1.27 1.3zm1.21-11.63c-.52 0-1.3-.8-1.3-1.3s.78-1.3 1.3-1.3c.5 0 1.3.8 1.3 1.3s-.8 1.3-1.3 1.3zm1.3 14.12c0 .52-.8 1.3-1.3 1.3s-1.3-.78-1.3-1.3c0-.5.8-1.3 1.3-1.3s1.3.8 1.3 1.3zm1.16-16.6c-.5 0-1.3-.8-1.3-1.3s.8-1.3 1.3-1.3c.52 0 1.3.8 1.3 1.3s-.78 1.3-1.3 1.3zm1.32 19.08c0 .52-.8 1.3-1.3 1.3s-1.3-.78-1.3-1.3.8-1.3 1.3-1.3 1.3.78 1.3 1.3z"/></defs><use fill="#5687bb" xlink:href="#a" transform="translate(-899 -174)"/></svg>