<svg xmlns="http://www.w3.org/2000/svg" xmlns:xlink="http://www.w3.org/1999/xlink" width="21" height="18"><defs><path id="a" d="M160.86 531.01c-1.3.55-2.7 1.13-4.14.88-.55-.09-1.97-.5-1.95-1.24-.06-.06-.04-.17.04-.2.24-.06.5-.1.74-.13.7-2.15 1.23-4.4 2.04-6.52a.98.98 0 0 1-.4-.37c-1.17.19-2.33.38-3.49.6 0 .03 0 .05-.02.07-.13.24-.32.4-.55.5.09 2.96 0 5.94-.1 8.88.9.04 1.78.5 2.57.99.23.14.15.54-.15.53l-3.73-.07c-.43 0-1.63.15-2.08-.16-.16.06-.28-.1-.17-.24l.04-.04a.17.17 0 0 1 .07-.07c.57-.61 1.5-.88 2.47-.9.09-2.98.04-5.95.02-8.92a1.3 1.3 0 0 1-.27-.17c-1.17.27-2.35.6-3.54.82a.9.9 0 0 1-.66.81h-.05l.03.03c1.03 2.03 1.65 4.34 2.42 6.49h.04c.31-.13.57.34.26.53a5.85 5.85 0 0 1-3.75.97c-.78-.08-2.17-.45-2.44-1.33-.18-.08-.13-.4.09-.39l.62.04c.57-2.15 1.16-4.44 2.07-6.48a.9.9 0 0 1-.33-.44c-.44.04-.87.06-1.3.04-.23-.01-.22-.31 0-.33l1.29-.19c.12-.41.62-.86 1.03-.6.2.06.4.18.52.33 1.12-.21 2.25-.46 3.37-.71l-.08-.18c-.13-.47.03-1.05.46-1.32a.9.9 0 0 1 .23-.1v-1c0-.57.84-.55.89 0l.06.98c.44.16.75.61.78 1.1 1.08-.24 2.17-.45 3.26-.62.04-.29.23-.56.5-.63.38-.26 1-.07 1.23.3.03.04.04.07.05.11.57-.05 1.14-.1 1.7-.1.21-.01.26.32.06.35l-1.71.26a.97.97 0 0 1-.76.72c.7 2.15 1.36 4.3 2.12 6.42l.5.04c.17.02.24.18.2.3.07.13.06.3-.1.36zm-13.4-4.87c0-.03 0-.05.03-.06l-.24-.01c-.5 2.13-1.26 4.26-1.9 6.36 1.38.07 2.74.1 4.11.14-.7-2.11-1.58-4.26-2-6.43zm8.61 4.15c.52-.02 1.04 0 1.55 0 .69-.01 1.38-.03 2.07 0a41.79 41.79 0 0 1-1.8-6.03c-.44 2.03-1.19 4.05-1.82 6.03z"/></defs><use fill="#acb1b9" xlink:href="#a" transform="translate(-142 -519)"/></svg>