<svg xmlns="http://www.w3.org/2000/svg" xmlns:xlink="http://www.w3.org/1999/xlink" width="26" height="26"><defs><path id="a" d="M1190 59.93v11.28c0 .48-.2.92-.5 1.25l-.02.02-.03.02c-.32.3-.76.5-1.24.5h-16.92a.88.88 0 0 1-.88-.88c0-.49.4-.88.88-.88h15.7l-7.46-7.47a2.16 2.16 0 0 0-1.54-.63c-.58 0-1.13.22-1.54.63l-8.67 8.68-.01.02a.88.88 0 0 1-1.25 0 1.77 1.77 0 0 1-.52-1.26V59.93c0-.2.03-.4.1-.6.1-.25.3-.45.56-.54a.89.89 0 0 1 .76.11l6.81 4.6.97-.97a3.92 3.92 0 0 1 5.58 0l7.46 7.46v-8.74l-3.26 2.23a.88.88 0 0 1-1-1.45l3.73-2.55-8.78-7.38a1.45 1.45 0 0 0-1.87 0l-6.96 5.86a.88.88 0 0 1-1.14-1.35l6.97-5.86c1.2-1 2.93-1 4.13 0l9.3 7.81c.18.15.32.33.42.53.15.26.22.54.22.84zm-17.04 4.85l-5.2-3.53V70z"/></defs><use fill="#2c3239" xlink:href="#a" transform="translate(-1165 -48)"/></svg>