<svg xmlns="http://www.w3.org/2000/svg" xmlns:xlink="http://www.w3.org/1999/xlink" width="27" height="26"><defs><path id="a" d="M959.74 70.52l-.02.01-1.44 1.45c-.6.6-1.31.93-2.14 1-.16.02-.3.02-.45.02a8.17 8.17 0 0 1-2.82-.58 18.55 18.55 0 0 1-5.47-3.28 20.29 20.29 0 0 1-5.27-6.73c-.47-1-1.02-2.34-1.12-3.83a3.49 3.49 0 0 1 1.17-2.96c.25-.21.49-.46.74-.72l.56-.56c1-.96 2.33-.96 3.3.02l2.33 2.33c.47.45.73 1.01.73 1.6 0 .61-.24 1.18-.73 1.67l-1.45 1.45a.86.86 0 0 1-1.2 0 .86.86 0 0 1 0-1.2l1.45-1.46c.1-.1.23-.27.23-.44 0-.16-.13-.3-.22-.4l-.02-.02-2.33-2.33c-.31-.31-.59-.3-.93.01l-.5.51c-.27.27-.55.56-.86.83-.44.4-.62.89-.57 1.56.08 1.2.55 2.34.96 3.2a18.56 18.56 0 0 0 4.83 6.16 16.77 16.77 0 0 0 4.97 3c1.02.38 1.8.52 2.53.46.43-.04.77-.2 1.08-.51l1.44-1.44c.39-.41.2-.7.01-.87l-.02-.02-.74-.76-.41-.4-1.16-1.16c-.12-.12-.29-.25-.46-.25-.17 0-.34.14-.46.25l-.36.37c-.36.35-.7.68-1.02 1.05l-.04.03c-.53.53-1.07.35-1.25.28l-.05-.01a9.34 9.34 0 0 1-2.3-1.41 17.4 17.4 0 0 1-2.18-2.1.85.85 0 0 1 .08-1.2.85.85 0 0 1 1.2.08c.57.65 1.21 1.27 1.96 1.89.58.45 1.08.78 1.56 1.01l.84-.84.35-.35c.5-.5 1.07-.76 1.66-.76.6 0 1.17.26 1.66.76l1.16 1.15.4.4c.26.25.53.51.79.8.92.94.93 2.27 0 3.24zm-1.03-8.05l-.14.01c-.41 0-.77-.29-.84-.7a6.68 6.68 0 0 0-1.88-3.63c-1-1-2.24-1.64-3.61-1.88a.85.85 0 0 1 .28-1.68 8.42 8.42 0 0 1 6.88 6.9c.08.46-.23.9-.7.98zm4.6-.21a.85.85 0 0 1-.98-.7 12 12 0 0 0-3.38-6.51 12 12 0 0 0-6.5-3.38.85.85 0 0 1 .29-1.68c2.81.48 5.38 1.82 7.42 3.86a13.7 13.7 0 0 1 3.85 7.43c.08.46-.24.9-.7.98z"/></defs><use xlink:href="#a" transform="translate(-939 -48)"/></svg>