<svg xmlns="http://www.w3.org/2000/svg" xmlns:xlink="http://www.w3.org/1999/xlink" width="17" height="16"><defs><path id="a" d="M146 503.74v-3.25c0-.27.22-.49.49-.49h3.25a.49.49 0 1 1 0 .98h-2.08l3.14 3.14a.49.49 0 1 1-.68.68l-3.14-3.14v2.08a.49.49 0 0 1-.98 0zm14 6.52v3.25c0 .27-.22.49-.49.49h-3.25a.49.49 0 1 1 0-.98h2.08l-3.24-3.23a.49.49 0 1 1 .69-.7l3.23 3.25v-2.08a.49.49 0 1 1 .98 0zm-9.1-1.16c.2.19.2.5 0 .69l-3.24 3.23h2.08a.49.49 0 0 1 0 .98h-3.25a.49.49 0 0 1-.49-.49v-3.25a.49.49 0 1 1 .98 0v2.08l3.23-3.24c.2-.2.5-.2.7 0zm9.1-8.61v3.25a.49.49 0 0 1-.98 0v-2.08l-3.14 3.14a.49.49 0 1 1-.68-.68l3.14-3.14h-2.08a.49.49 0 1 1 0-.98h3.25c.27 0 .49.22.49.49z"/></defs><use fill="#acb1b9" xlink:href="#a" transform="translate(-144 -499)"/></svg>