<svg xmlns="http://www.w3.org/2000/svg" xmlns:xlink="http://www.w3.org/1999/xlink" width="36" height="36"><defs><path id="a" d="M153 833.48A16.5 16.5 0 0 1 136.52 850c-2.37 0-4.77-.5-7.11-1.5a14.8 14.8 0 0 1-7.77-7.58 17.61 17.61 0 0 1-1.25-11.05 16.43 16.43 0 0 1 5.12-8.7 1.2 1.2 0 0 1 1.71.09c.45.5.4 1.27-.1 1.71-4.7 4.21-5.99 10.87-3.26 16.96a12.42 12.42 0 0 0 6.5 6.35c2.04.86 4.12 1.3 6.16 1.3a14.1 14.1 0 0 0 1.2-28.13v5l-.01.13v.13c0 .67-.54 1.22-1.2 1.22a4.5 4.5 0 0 0-4.5 4.5v6.1a4.5 4.5 0 1 0 8.99 0v-6.1c0-.67.54-1.22 1.21-1.22.67 0 1.21.55 1.21 1.21v6.1c0 3.83-3.1 6.94-6.92 6.94a6.93 6.93 0 0 1-6.91-6.93v-6.1a6.94 6.94 0 0 1 5.7-6.83v-4.23a2.33 2.33 0 0 1 2.53-2.36A16.47 16.47 0 0 1 153 833.48zm-15.29-3.65v2.2c0 .66-.55 1.2-1.21 1.2-.67 0-1.21-.54-1.21-1.2v-2.2c0-.67.54-1.21 1.2-1.21.67 0 1.22.54 1.22 1.21z"/></defs><use fill="#69bf82" xlink:href="#a" transform="translate(-118 -815)"/></svg>